# xmcd
#
# Track frame offsets: 
#        150
#        21720
#        45027
#        57434
#        84030
#        114266
#        139259
#        165636
#        182132
#        204636
#        248880
#        278624
#        294299
#        308013
#
# Disc length: 4398 seconds
#
# Revision: 0
# Processed by: cddbd v1.5.2PL0 Copyright (c) Steve Scherf et al.
# Submitted via: ExactAudioCopy v0.99pb5
#
DISCID=b9112c0e
DTITLE=Tom Waits - Invitation To The Blues CD2
DYEAR=1999
DGENRE=Blues
TTITLE0=Invitation To The Blues
TTITLE1=Cemetary Polka
TTITLE2=A Little Rain
TTITLE3=Innocent When You Dream
TTITLE4=16 Shells From 30.06
TTITLE5=Cold Water
TTITLE6=Who Are You
TTITLE7=Straight To The Top
TTITLE8=I`ll Shoot The Moon
TTITLE9=Filipino Box Spring Hog
TTITLE10=What`s He Building
TTITLE11=Lucky Day
TTITLE12=Don`t Want To Go Home
TTITLE13=Pony
EXTD=
EXTT0=
EXTT1=
EXTT2=
EXTT3=
EXTT4=
EXTT5=
EXTT6=
EXTT7=
EXTT8=
EXTT9=
EXTT10=
EXTT11=
EXTT12=
EXTT13=
PLAYORDER=
